<svg width="184" height="56" viewBox="0 0 184 56" fill="none" xmlns="http://www.w3.org/2000/svg">
<path d="M44.6982 22.1461C44.6992 21.6315 44.5003 21.1368 44.1435 20.7666C43.9703 20.5863 43.7626 20.4428 43.5329 20.3445C43.3033 20.2462 43.0562 20.1951 42.8065 20.1943C42.4889 20.2011 42.1781 20.2899 41.9028 20.4552L38.1056 16.1978C38.3456 15.7401 38.3962 15.2061 38.2465 14.7113C38.0967 14.2165 37.7588 13.8006 37.3055 13.5535C36.9962 13.3899 36.6467 13.3181 36.298 13.3466C35.9494 13.3752 35.6161 13.5029 35.3374 13.7147L29.5244 11.0813C29.522 10.6208 29.3596 10.1755 29.0651 9.82202C28.7755 9.47329 28.3698 9.24138 27.9229 9.16914C27.4783 9.09936 27.0235 9.19508 26.6444 9.43821C26.2597 9.68569 25.9749 10.0617 25.8403 10.4995H16.9715C16.8481 10.0465 16.5654 9.65355 16.1755 9.39314C15.7906 9.13557 15.3231 9.03249 14.8658 9.10435C14.4086 9.17621 13.995 9.41776 13.7072 9.78104C13.4111 10.1483 13.2555 10.6094 13.2683 11.0813C13.2644 11.1528 13.2644 11.2243 13.2683 11.2958L9.05405 13.518C8.90409 13.3078 8.71304 13.1302 8.49251 12.9963C8.27369 12.8641 8.02989 12.7788 7.77652 12.7459C7.52315 12.713 7.26572 12.7331 7.02051 12.805C6.77517 12.8774 6.54756 13.0004 6.34993 13.1656C6.15197 13.3332 5.98973 13.5389 5.87289 13.7707C5.69422 14.1222 5.62396 14.5189 5.67105 14.9105C5.71813 15.3022 5.88044 15.6709 6.13731 15.9697L2.88119 20.2312C2.40958 20.1413 1.9216 20.2393 1.52095 20.5044C1.1146 20.7745 0.824596 21.188 0.708625 21.6626C0.590047 22.1406 0.651381 22.6487 0.881721 23.0817C1.11206 23.5147 1.49233 23.8411 1.9462 23.9968V29.437C1.6518 29.5326 1.38465 29.702 1.16794 29.9287C0.950204 30.1581 0.791194 30.437 0.704536 30.7414C0.618023 31.0467 0.605288 31.3682 0.667385 31.6793C0.729482 31.9904 0.864625 32.2823 1.06163 32.5307C1.25926 32.7766 1.51141 32.9678 1.79763 33.0893C2.08334 33.2102 2.39493 33.2565 2.70333 33.224C3.01174 33.1915 3.30691 33.0813 3.56131 32.9036C3.81754 32.726 4.02744 32.4856 4.17328 32.2043L8.54839 32.8995C8.60291 33.3584 8.81553 33.7832 9.14673 34.096C9.47793 34.4087 9.9059 34.5877 10.3557 34.6041L12.3156 38.5172C12.0273 38.643 11.7745 38.8382 11.5796 39.0854C11.3833 39.3376 11.2499 39.6332 11.1907 39.9475C11.1314 40.2619 11.1479 40.5858 11.2389 40.8925C11.3316 41.1998 11.4951 41.4784 11.7159 41.7038C11.9367 41.9291 12.2079 42.0958 12.5064 42.1873C12.8047 42.2799 13.1217 42.2949 13.4274 42.2308C13.733 42.1668 14.0174 42.0258 14.2537 41.8212C14.4936 41.6164 14.6804 41.3541 14.7989 41.0564L21.4461 43.1625C21.4706 43.5518 21.6097 43.9246 21.8414 44.232C22.0731 44.5393 22.3906 44.7674 22.7518 44.8862L22.6523 51.1978C22.2167 51.3399 21.847 51.6348 21.611 52.0283C21.3728 52.4255 21.2797 52.8933 21.3476 53.3517C21.4154 53.8101 21.6401 54.2306 21.9831 54.5414C22.3266 54.846 22.7641 55.014 23.2166 55.014C23.6691 55.014 24.1066 54.846 24.4487 54.5428C24.7921 54.2319 25.0169 53.8111 25.0848 53.3524C25.1527 52.8937 25.0594 52.4256 24.8208 52.0283C24.5852 51.635 24.2159 51.3402 23.7809 51.1978L23.8899 44.8862C24.2306 44.7783 24.5359 44.5721 24.769 44.2934C25.0019 44.0099 25.1521 43.6673 25.2031 43.3037C25.2541 42.94 25.2039 42.5693 25.058 42.2324C24.9134 41.8979 24.677 41.6113 24.3765 41.406L25.3115 38.5268L32.1672 40.9444C32.1672 41.3609 32.2939 41.7666 32.5338 42.1012C32.7723 42.4372 33.109 42.6845 33.4947 42.8087V51.1951C33.0595 51.3365 32.6898 51.6303 32.4534 52.0228C32.2148 52.4201 32.1215 52.8882 32.1894 53.3469C32.2573 53.8056 32.4821 54.2264 32.8255 54.5373C33.165 54.8403 33.6037 55.0077 34.0583 55.0077C34.5129 55.0077 34.9516 54.8403 35.2911 54.5373C35.6344 54.2264 35.8593 53.8056 35.9272 53.3469C35.995 52.8882 35.9017 52.4201 35.6632 52.0228C35.4273 51.6301 35.0581 51.3357 34.6232 51.1937V42.8074C34.8822 42.7282 35.1207 42.5902 35.3224 42.4058C35.627 42.1211 35.8337 41.7468 35.9125 41.3369C35.9914 40.9271 35.9384 40.5027 35.7613 40.1248L41.8129 34.9483C42.11 35.1422 42.4534 35.246 42.8065 35.2474C43.2562 35.2433 43.6883 35.0753 44.0277 34.7734C44.3677 34.4639 44.5904 34.046 44.658 33.5907C44.7256 33.1353 44.6338 32.6706 44.3984 32.2753C44.1661 31.8841 43.8014 31.5894 43.3707 31.4448V23.9914C43.7524 23.8685 44.0876 23.624 44.3262 23.2921C44.5647 22.9615 44.6942 22.56 44.6982 22.1461ZM41.8224 31.6415L36.2983 26.8474L41.7174 23.7496C41.8728 23.8575 42.0446 23.9408 42.2231 23.9955V31.4503C42.0805 31.4973 41.9441 31.5615 41.8169 31.6415H41.8224ZM21.7255 42.0357L14.893 39.8681C14.8139 39.5283 14.646 39.2157 14.4064 38.9625C14.1698 38.7132 13.8695 38.5336 13.5382 38.4435L11.4624 34.2735C11.6382 34.1451 11.7895 33.9867 11.9149 33.8078L20.6161 36.8727L21.9708 41.6765C21.8768 41.7857 21.795 41.9059 21.7269 42.0343L21.7255 42.0357ZM8.75147 31.7522L4.37227 31.0583C4.3291 30.6891 4.18263 30.3397 3.94975 30.0503C3.72112 29.7642 3.41419 29.5511 3.06655 29.437V23.9955C3.35956 23.8995 3.62492 23.7336 3.83979 23.5121C4.05466 23.2906 4.2126 23.0201 4.30003 22.7239H8.75011L9.77642 30.8207C9.32985 30.9912 8.9649 31.3237 8.75147 31.7522ZM7.64065 16.7005C7.75787 16.7005 7.87372 16.6868 7.98821 16.6636L8.607 21.5643H4.30003C4.21647 21.2838 4.07115 21.0257 3.87479 20.8089L7.12137 16.6158C7.29037 16.6704 7.46483 16.6977 7.64065 16.7005ZM10.9118 30.7838L9.88954 22.7252H15.2146C15.3305 23.1118 15.5622 23.4519 15.8757 23.695C16.1892 23.9408 16.5694 24.0774 16.962 24.0897L18.0046 27.7557L11.6832 31.2359C11.4658 31.0252 11.2006 30.8705 10.9104 30.7851L10.9118 30.7838ZM27.6776 22.3974L21.93 25.5935L18.8769 22.4111C18.9221 22.1421 18.907 21.8664 18.8328 21.6039C18.7585 21.3415 18.6269 21.0988 18.4476 20.8936L22.1058 17.3479L27.7185 21.5916C27.6295 21.8571 27.6093 22.141 27.6599 22.4166L27.6776 22.3974ZM18.3481 23.5215L20.8914 26.1672L19.0255 27.182L18.0496 23.7592C18.1572 23.6902 18.2577 23.6106 18.3495 23.5215H18.3481ZM17.7702 22.1229C17.7705 22.2779 17.726 22.4297 17.6421 22.56C17.5592 22.6891 17.4395 22.7905 17.2986 22.8509C17.1592 22.9109 17.0048 22.9268 16.8562 22.8962C16.7075 22.8657 16.5718 22.7903 16.4672 22.6802C16.3591 22.5689 16.2859 22.4284 16.2566 22.276C16.2273 22.1236 16.2432 21.9659 16.3023 21.8224C16.3591 21.6794 16.4568 21.5563 16.5831 21.4686C16.7077 21.3824 16.8555 21.3362 17.0069 21.3362C17.1109 21.3337 17.2142 21.3531 17.3102 21.3931C17.4062 21.4331 17.4928 21.4928 17.5644 21.5684C17.6375 21.6451 17.6945 21.7358 17.7319 21.8351C17.7694 21.9343 17.7866 22.0401 17.7825 22.1461L17.7702 22.1229ZM12.2884 32.726V32.6577C12.2884 32.5211 12.2747 32.3846 12.2475 32.2521L18.3263 28.8975L20.2222 35.5219L12.2884 32.726ZM19.3458 28.3375L21.7173 27.029L25.1261 30.583C24.9591 31.0147 24.9495 31.4916 25.0988 31.9297C25.2474 32.3668 25.5445 32.7356 25.9343 32.9637L24.5796 37.0681L21.5088 35.9836L19.3458 28.3375ZM26.883 32.0663C26.7319 32.0655 26.5845 32.0189 26.4604 31.9325C26.3671 31.8652 26.2891 31.7787 26.2318 31.6787C26.1745 31.5788 26.1392 31.4678 26.1282 31.353C26.1173 31.2383 26.1309 31.1226 26.1682 31.0135C26.2055 30.9045 26.2657 30.8048 26.3446 30.7209C26.4502 30.6124 26.5859 30.5382 26.7342 30.5077C26.8824 30.4773 27.0363 30.4921 27.176 30.5502C27.3159 30.6105 27.4345 30.7114 27.5167 30.8398C27.6011 30.9699 27.646 31.1217 27.6462 31.2768C27.6487 31.4852 27.5705 31.6864 27.4281 31.8382C27.3584 31.9116 27.2747 31.9703 27.182 32.0108C27.0894 32.0514 26.9895 32.0731 26.8884 32.0745L26.883 32.0663ZM26.883 29.3305C26.5068 29.3303 26.1395 29.4457 25.8308 29.661L22.7505 26.4554L28.171 23.456C28.3326 23.6395 28.5294 23.7888 28.7495 23.8949C28.9697 24.0011 29.2088 24.062 29.4528 24.0741C29.6968 24.0862 29.9408 24.0492 30.1703 23.9653C30.3998 23.8814 30.6102 23.7524 30.7892 23.5857L34.3029 26.6288L28.3277 30.0339C28.1531 29.8177 27.9329 29.6428 27.683 29.5217C27.4347 29.402 27.1626 29.3399 26.8871 29.3401L26.883 29.3305ZM35.7926 17.1198C36.0346 17.2147 36.2945 17.2547 36.5537 17.237C36.813 17.2193 37.0651 17.1443 37.2919 17.0173L41.1082 21.3034C40.9935 21.5375 40.9279 21.7927 40.9155 22.0532C40.9031 22.3138 40.9441 22.5741 41.036 22.8181L35.3511 26.0456L31.3766 22.5982C31.4802 22.1803 31.4407 21.7377 31.2635 21.3457L35.7926 17.1198ZM30.3013 22.1461C30.3019 22.301 30.2579 22.4528 30.1745 22.5832C30.092 22.7114 29.9735 22.8122 29.8338 22.8727C29.695 22.9334 29.5411 22.9502 29.3925 22.921C29.244 22.8917 29.1079 22.8177 29.0024 22.7088C28.8939 22.5988 28.8197 22.4594 28.789 22.3078C28.7583 22.1562 28.7723 21.9989 28.8293 21.8552C28.8842 21.7119 28.9799 21.5879 29.1046 21.4987C29.2497 21.3953 29.4269 21.3472 29.6043 21.3629C29.7816 21.3787 29.9476 21.4574 30.0723 21.5847C30.1455 21.6586 30.2034 21.7462 30.2427 21.8425C30.282 21.9389 30.3019 22.042 30.3013 22.1461ZM28.7611 31.1198L35.2188 27.4525L40.5657 32.0786L28.6943 31.8409C28.7489 31.6647 28.7761 31.4817 28.7802 31.296C28.7802 31.2318 28.7666 31.1771 28.7611 31.1198ZM42.8065 21.3594C42.9574 21.3599 43.1047 21.4061 43.229 21.4919C43.3557 21.5794 43.4538 21.7025 43.5111 21.8456C43.5685 21.9894 43.5834 22.1467 43.5542 22.2987C43.5249 22.4508 43.4528 22.5912 43.3462 22.7034C43.2415 22.8134 43.1057 22.8886 42.9572 22.9192C42.8086 22.9497 42.6542 22.934 42.5148 22.8741C42.3741 22.814 42.2545 22.7132 42.1713 22.5846C42.0731 22.4323 42.029 22.2512 42.0464 22.0707C42.0637 21.8903 42.1413 21.7209 42.2667 21.5902C42.3366 21.5172 42.4203 21.459 42.513 21.4191C42.6058 21.3793 42.7056 21.3598 42.8065 21.3594ZM36.4292 14.5028C36.5804 14.5028 36.729 14.5479 36.853 14.6339C36.9798 14.7214 37.078 14.8445 37.1352 14.9877C37.1922 15.1316 37.2068 15.2889 37.1774 15.441C37.1479 15.593 37.0755 15.7333 36.9689 15.8454C36.8642 15.9554 36.7284 16.0307 36.5799 16.0612C36.4313 16.0917 36.2769 16.076 36.1375 16.0162C35.9973 15.9558 35.8782 15.855 35.7954 15.7266C35.6969 15.5744 35.6527 15.3933 35.67 15.2128C35.6874 15.0322 35.7652 14.8629 35.8908 14.7323C35.9606 14.6597 36.0442 14.6018 36.1366 14.5622C36.2291 14.5226 36.3286 14.5019 36.4292 14.5014V14.5028ZM34.6232 14.6735C34.5226 14.9597 34.4914 15.2658 34.5321 15.5665C34.5729 15.8672 34.6845 16.1538 34.8577 16.4027L30.4866 20.4784C30.1603 20.2717 29.7765 20.1752 29.3914 20.203C29.0063 20.2307 28.6402 20.3814 28.3468 20.6327L22.9276 16.5379L26.7657 12.8091C27.0274 12.9498 27.3164 13.0222 27.6108 13.0249C27.9147 13.0249 28.2146 12.9485 28.4831 12.8037C28.7529 12.6589 28.9846 12.4486 29.1591 12.1904L34.6232 14.6735ZM25.9671 12.006L22.0145 15.8359L16.8802 11.95C16.9238 11.8585 16.9606 11.7629 16.9892 11.6659H25.8267C25.8621 11.7834 25.9084 11.8981 25.9671 12.006ZM27.619 10.296C27.7703 10.296 27.9188 10.3424 28.0428 10.4285C28.1696 10.5159 28.2678 10.639 28.325 10.7822C28.382 10.9262 28.3966 11.0835 28.3672 11.2355C28.3377 11.3875 28.2653 11.5279 28.1587 11.64C28.053 11.7485 27.9173 11.8227 27.7691 11.8532C27.6209 11.8836 27.467 11.8688 27.3273 11.8107C27.1871 11.7504 27.068 11.6496 26.9852 11.5211C26.9229 11.424 26.8822 11.3146 26.8659 11.2002C26.8497 11.0859 26.8582 10.9695 26.8909 10.8588C26.9237 10.748 26.9798 10.6457 27.0556 10.5587C27.1314 10.4717 27.225 10.4021 27.33 10.3547C27.4231 10.3153 27.5233 10.2953 27.6244 10.296H27.619ZM15.1738 10.296C15.3237 10.296 15.4722 10.3424 15.5976 10.4285C15.7238 10.5162 15.8215 10.6392 15.8784 10.7822C15.9358 10.926 15.9507 11.0833 15.9215 11.2353C15.8922 11.3874 15.82 11.5278 15.7135 11.64C15.6078 11.7485 15.4721 11.8227 15.3239 11.8532C15.1757 11.8836 15.0218 11.8688 14.8821 11.8107C14.7414 11.7506 14.6218 11.6498 14.5386 11.5211C14.4404 11.3689 14.3963 11.1878 14.4137 11.0073C14.431 10.8268 14.5086 10.6575 14.634 10.5268C14.704 10.454 14.7878 10.3961 14.8805 10.3565C14.9732 10.3168 15.0729 10.2962 15.1738 10.296ZM13.7604 12.3639C14.037 12.6999 14.4187 12.9266 14.8398 13.0058C15.261 13.0837 15.6944 13.0086 16.0665 12.7927L21.1803 16.6513L17.4594 20.2571C17.2278 20.1933 16.9858 20.1764 16.7476 20.2074C16.5094 20.2383 16.2797 20.3165 16.0719 20.4374C15.6494 20.6833 15.3373 21.0862 15.1996 21.5656H9.74507L9.04587 16.0448C9.35935 15.6897 9.53245 15.2294 9.53381 14.75V14.6052L13.759 12.3652L13.7604 12.3639ZM7.64065 13.9674C7.79194 13.9674 7.94051 14.0138 8.06454 14.0999C8.19131 14.1873 8.28947 14.3104 8.34667 14.4536C8.40385 14.5975 8.41858 14.7549 8.3891 14.907C8.35963 15.059 8.28718 15.1994 8.18039 15.3114C8.07473 15.4199 7.93904 15.4942 7.79083 15.5246C7.64262 15.555 7.48871 15.5402 7.34898 15.4821C7.20861 15.4214 7.0895 15.3201 7.00688 15.1912C6.90898 15.0391 6.86514 14.8583 6.88246 14.6781C6.89977 14.4979 6.97722 14.3288 7.10228 14.1982C7.17195 14.1254 7.2555 14.0673 7.34798 14.0274C7.44045 13.9875 7.53998 13.968 7.64065 13.9674ZM2.50228 21.3607C2.65221 21.3607 2.80077 21.4072 2.9248 21.4932C3.05152 21.5808 3.14966 21.7038 3.20694 21.847C3.26429 21.9908 3.27924 22.1481 3.25001 22.3001C3.22077 22.4522 3.14858 22.5926 3.04202 22.7047C2.93731 22.8147 2.80157 22.89 2.65298 22.9205C2.50439 22.951 2.35004 22.9353 2.21061 22.8755C2.06993 22.8153 1.95034 22.7145 1.86714 22.5859C1.7689 22.4337 1.72487 22.2526 1.74219 22.0721C1.75951 21.8916 1.83716 21.7223 1.96255 21.5916C2.03238 21.5186 2.11615 21.4604 2.20887 21.4205C2.3016 21.3806 2.40138 21.3598 2.50228 21.3594V21.3607ZM2.50228 32.0759C2.35086 32.0758 2.20303 32.0296 2.0784 31.9434C1.95213 31.8557 1.85447 31.7327 1.79763 31.5896C1.7401 31.446 1.72493 31.2888 1.75392 31.1367C1.78292 30.9847 1.85485 30.8442 1.96119 30.7319C2.06695 30.6231 2.20289 30.5486 2.35138 30.5182C2.49987 30.4878 2.65406 30.5027 2.79396 30.5611C2.93298 30.6212 3.05292 30.7209 3.13606 30.8507C3.2343 31.003 3.27834 31.184 3.26102 31.3645C3.2437 31.545 3.16605 31.7143 3.04065 31.845C2.97087 31.9176 2.88727 31.9754 2.7948 32.0151C2.70233 32.0547 2.60286 32.0754 2.50228 32.0759ZM9.65511 32.6577C9.65511 32.502 9.70009 32.3504 9.78323 32.2206C9.86643 32.092 9.98601 31.9912 10.1267 31.9311C10.2661 31.871 10.4205 31.8552 10.5691 31.8857C10.7178 31.9163 10.8535 31.9917 10.9581 32.1018C11.0662 32.213 11.1394 32.3535 11.1687 32.506C11.198 32.6584 11.1821 32.8161 11.123 32.9596C11.0662 33.1026 10.9685 33.2257 10.8423 33.3133C10.6962 33.4143 10.519 33.4599 10.3424 33.4419C10.1658 33.4239 10.0014 33.3434 9.87864 33.215C9.73465 33.0654 9.65447 32.8655 9.65511 32.6577ZM13.0693 41.1042C12.9179 41.1041 12.7701 41.0579 12.6455 40.9717C12.5192 40.884 12.4215 40.7609 12.3647 40.6179C12.3073 40.4741 12.2924 40.3169 12.3216 40.1648C12.3508 40.0127 12.423 39.8723 12.5296 39.7602C12.6353 39.6516 12.771 39.5774 12.9192 39.5469C13.0674 39.5165 13.2213 39.5313 13.361 39.5894C13.5 39.6495 13.62 39.7506 13.7045 39.879C13.8029 40.032 13.8466 40.2138 13.8286 40.3949C13.8105 40.576 13.7317 40.7457 13.605 40.8761C13.5338 40.9485 13.4489 41.006 13.3553 41.0451C13.2617 41.0843 13.1612 41.1044 13.0598 41.1042H13.0693ZM23.203 53.8558C23.0515 53.8556 22.9037 53.8094 22.7791 53.7233C22.6521 53.6354 22.5539 53.5119 22.4969 53.3682C22.4402 53.2244 22.4257 53.0674 22.4552 52.9156C22.4847 52.7639 22.5568 52.6237 22.6632 52.5118C22.7679 52.4018 22.9037 52.3265 23.0523 52.296C23.2009 52.2655 23.3552 52.2812 23.4946 52.341C23.6337 52.3998 23.7536 52.5008 23.8367 52.6306C23.9352 52.7828 23.9794 52.9639 23.9621 53.1444C23.9447 53.325 23.8669 53.4943 23.7413 53.6249C23.6715 53.6975 23.5879 53.7553 23.4955 53.795C23.403 53.8346 23.3035 53.8553 23.203 53.8558ZM23.3161 43.8386C23.1656 43.833 23.0202 43.7821 22.899 43.6925C22.8083 43.623 22.7333 43.535 22.6791 43.4343C22.6248 43.3336 22.5925 43.2225 22.5842 43.1084C22.576 42.9943 22.592 42.8797 22.6312 42.7723C22.6705 42.6648 22.732 42.5669 22.8118 42.485C22.9176 42.3775 23.0535 42.3048 23.2015 42.2765C23.3495 42.2482 23.5026 42.2657 23.6405 42.3266C23.7793 42.388 23.8969 42.4892 23.9785 42.6175C24.0762 42.7702 24.1196 42.9516 24.1015 43.1321C24.0834 43.3126 24.005 43.4816 23.879 43.6119C23.8077 43.684 23.7228 43.7413 23.6292 43.7802C23.5356 43.8191 23.4352 43.839 23.3338 43.8386H23.3161ZM23.2711 41.1042C23.1716 41.1069 23.0735 41.1178 22.9767 41.1369L21.8972 37.3535L24.2238 38.173L23.2711 41.1042ZM27.0411 33.2409C27.3109 33.2177 27.5726 33.1358 27.8084 32.9978L40.9051 33.2683V33.3147C40.9051 33.581 40.9596 33.8447 41.0632 34.0878L34.994 39.2739C34.712 39.1023 34.3889 39.0102 34.059 39.0076C33.7523 39.0076 33.4497 39.0854 33.1785 39.2329C32.9059 39.3805 32.6742 39.5949 32.5011 39.8558L25.6686 37.4327L27.0411 33.2409ZM34.0412 53.8558C33.8898 53.8555 33.7421 53.8093 33.6174 53.7233C33.524 53.656 33.446 53.5695 33.3887 53.4696C33.3314 53.3696 33.2961 53.2586 33.2851 53.1439C33.2742 53.0291 33.2878 52.9134 33.3251 52.8044C33.3624 52.6954 33.4226 52.5956 33.5015 52.5118C33.6062 52.4018 33.742 52.3265 33.8905 52.296C34.0391 52.2655 34.1935 52.2812 34.3329 52.341C34.4719 52.3998 34.5919 52.5008 34.675 52.6306C34.7733 52.7829 34.8173 52.9639 34.8 53.1444C34.7827 53.3249 34.705 53.4942 34.5796 53.6249C34.5098 53.6975 34.4262 53.7553 34.3338 53.795C34.2413 53.8346 34.1418 53.8553 34.0412 53.8558ZM34.0412 41.742C33.8898 41.7419 33.742 41.6957 33.6174 41.6095C33.524 41.5423 33.446 41.4558 33.3887 41.3558C33.3314 41.2559 33.2961 41.1448 33.2851 41.0301C33.2742 40.9154 33.2878 40.7996 33.3251 40.6906C33.3624 40.5816 33.4226 40.4818 33.5015 40.398C33.6073 40.2897 33.7431 40.2157 33.8913 40.1855C34.0395 40.1553 34.1933 40.1704 34.3329 40.2286C34.4719 40.2874 34.5919 40.3885 34.675 40.5182C34.7733 40.6705 34.8173 40.8515 34.8 41.032C34.7827 41.2125 34.705 41.3818 34.5796 41.5126C34.5098 41.5851 34.4262 41.643 34.3338 41.6826C34.2413 41.7223 34.1418 41.7416 34.0412 41.742ZM42.7915 34.0837C42.6405 34.0833 42.4932 34.0371 42.3689 33.9512C42.2756 33.8839 42.1976 33.7974 42.1403 33.6975C42.083 33.5975 42.0477 33.4865 42.0367 33.3718C42.0258 33.257 42.0394 33.1413 42.0767 33.0323C42.114 32.9233 42.1742 32.8235 42.2531 32.7397C42.3587 32.6312 42.4944 32.5569 42.6427 32.5265C42.7909 32.496 42.9448 32.5108 43.0845 32.5689C43.2235 32.629 43.3435 32.7287 43.4266 32.8585C43.5245 33.0098 43.5689 33.1896 43.5526 33.3692C43.5363 33.5488 43.4602 33.7177 43.3367 33.8487C43.268 33.9212 43.1856 33.9793 43.0944 34.0196C43.0031 34.0599 42.9048 34.0817 42.8051 34.0837H42.7915Z" fill="#12705B"/>
<path d="M63.8361 40.1719C63.4135 40.1719 63.0851 40.0558 62.852 39.8223C62.6407 39.5682 62.5344 39.2295 62.5344 38.8047V18.6775C62.5344 18.2322 62.6407 17.8921 62.852 17.6599C63.0837 17.4264 63.4122 17.3103 63.8361 17.3103C64.2586 17.3103 64.5761 17.4264 64.7874 17.6599C65.0191 17.8921 65.1363 18.2322 65.1363 18.6775V38.8047C65.1363 39.2281 65.0314 39.5682 64.8187 39.8223C64.6075 40.0545 64.2804 40.1719 63.8361 40.1719ZM71.9539 40.1719C71.5722 40.1719 71.2765 40.0668 71.0652 39.8551C70.8539 39.6215 70.7476 39.3033 70.7476 38.9003V18.5819C70.7476 18.1585 70.8539 17.8402 71.0652 17.6272C71.2765 17.4155 71.5722 17.3103 71.9539 17.3103C72.2919 17.3103 72.5563 17.384 72.7471 17.5316C72.9584 17.6599 73.1492 17.8826 73.3182 18.2008L82.0125 34.6075H81.0598L89.7228 18.1995C89.8918 17.8826 90.0717 17.6599 90.2625 17.5316C90.4534 17.384 90.7273 17.3103 91.0871 17.3103C91.447 17.3103 91.7318 17.4155 91.9431 17.6272C92.1557 17.8402 92.2606 18.1571 92.2606 18.5819V38.9003C92.2606 39.3033 92.1557 39.6215 91.9431 39.8551C91.7523 40.0668 91.4579 40.1719 91.0558 40.1719C90.6742 40.1719 90.3784 40.0668 90.1671 39.8551C89.9545 39.6215 89.8496 39.3033 89.8496 38.9003V21.0295H90.6115L82.679 35.9433C82.5291 36.2192 82.371 36.4213 82.202 36.547C82.0548 36.6535 81.8326 36.7068 81.5355 36.7068C81.2397 36.7068 81.0067 36.6426 80.8377 36.5156C80.6473 36.3618 80.4952 36.1659 80.3933 35.9433L72.3655 20.9981H73.1287V38.9003C73.1287 39.3033 73.0211 39.6215 72.8098 39.8551C72.619 40.0668 72.3341 40.1719 71.9539 40.1719ZM99.0973 40.1719C98.717 40.1719 98.4212 40.0668 98.21 39.8551C97.9974 39.6215 97.8924 39.3033 97.8924 38.9003V18.5819C97.8924 18.1585 97.9974 17.8402 98.21 17.6272C98.4212 17.4155 98.717 17.3103 99.0973 17.3103C99.4366 17.3103 99.7011 17.384 99.8919 17.5316C100.103 17.6599 100.293 17.8826 100.462 18.2008L109.157 34.6075H108.205L116.868 18.1995C117.037 17.8826 117.216 17.6599 117.406 17.5316C117.597 17.384 117.872 17.3103 118.232 17.3103C118.592 17.3103 118.877 17.4155 119.088 17.6272C119.299 17.8402 119.405 18.1571 119.405 18.5819V38.9003C119.405 39.3033 119.299 39.6215 119.088 39.8551C118.897 40.0668 118.601 40.1719 118.199 40.1719C117.819 40.1719 117.523 40.0668 117.312 39.8551C117.099 39.6215 116.994 39.3033 116.994 38.9003V21.0295H117.755L109.822 35.9433C109.675 36.2192 109.516 36.4213 109.347 36.547C109.198 36.6535 108.976 36.7068 108.68 36.7068C108.384 36.7068 108.151 36.6426 107.982 36.5156C107.792 36.3618 107.64 36.1659 107.538 35.9433L99.5102 20.9981H100.272V38.9003C100.272 39.3033 100.166 39.6215 99.9546 39.8551C99.7638 40.0668 99.4775 40.1719 99.0973 40.1719ZM134.365 40.2361C132.294 40.2361 130.484 39.769 128.941 38.8375C127.417 37.8828 126.232 36.547 125.386 34.8301C124.56 33.1132 124.149 31.0781 124.149 28.7247C124.149 26.945 124.38 25.3552 124.846 23.9552C125.333 22.5347 126.02 21.3382 126.909 20.363C127.793 19.3691 128.888 18.5864 130.114 18.0724C131.382 17.522 132.799 17.2461 134.367 17.2461C136.481 17.2461 138.3 17.7118 139.823 18.6447C141.367 19.5776 142.551 20.9025 143.377 22.6194C144.224 24.3158 144.646 26.3399 144.646 28.6933C144.646 30.4744 144.402 32.0752 143.917 33.4943C143.43 34.9148 142.742 36.1236 141.853 37.1193C140.958 38.1213 139.853 38.914 138.618 39.4412C137.369 39.9712 135.952 40.2361 134.365 40.2361ZM134.365 37.9142C135.974 37.9142 137.327 37.5536 138.427 36.8338C139.549 36.1126 140.405 35.0637 140.997 33.6855C141.589 32.3074 141.886 30.6533 141.886 28.7247C141.886 25.8209 141.229 23.5741 139.918 21.9842C138.627 20.3725 136.776 19.5667 134.365 19.5667C132.801 19.5667 131.457 19.9273 130.335 20.6484C129.235 21.3696 128.39 22.4186 127.797 23.7967C127.204 25.153 126.909 26.7961 126.909 28.7247C126.909 31.608 127.564 33.8658 128.877 35.4994C130.188 37.1097 132.017 37.9142 134.365 37.9142Z" fill="#0E1726"/>
<path d="M151.264 40.2359C150.462 40.2359 149.847 40.0133 149.424 39.568C149.002 39.1227 148.789 38.4972 148.789 37.6913V19.7891C148.789 18.9832 149.002 18.359 149.424 17.9137C149.847 17.4685 150.462 17.2458 151.264 17.2458C152.048 17.2458 152.651 17.4685 153.073 17.9137C153.497 18.359 153.708 18.9846 153.708 19.7891V37.6913C153.708 38.4972 153.497 39.1227 153.073 39.568C152.671 40.0133 152.069 40.2359 151.264 40.2359ZM177.661 43.1615C177.999 43.712 178.126 44.2105 178.041 44.6558C177.957 45.1215 177.745 45.5026 177.407 45.8004C177.064 46.1205 176.633 46.3307 176.17 46.4041C175.688 46.4874 175.193 46.4324 174.741 46.2456C174.277 46.0763 173.875 45.7362 173.535 45.2281L171.282 41.5403C171.02 41.126 170.646 40.7945 170.204 40.5842C169.782 40.3943 169.231 40.2987 168.554 40.2987L172.298 38.8687C173.271 38.8687 174.064 39.038 174.677 39.3768C175.313 39.7169 175.884 40.2987 176.392 41.1251L177.661 43.1615ZM168.586 40.2987C166.385 40.2987 164.45 39.822 162.779 38.8687C161.13 37.8934 159.839 36.5372 158.908 34.7984C157.999 33.0597 157.544 31.0355 157.544 28.7245C157.544 26.9653 157.797 25.3863 158.306 23.9877C158.834 22.5672 159.585 21.3584 160.558 20.3627C161.541 19.3384 162.731 18.5361 164.048 18.0093C165.423 17.4575 166.936 17.1816 168.586 17.1816C170.828 17.1816 172.775 17.6597 174.424 18.6131C176.074 19.5664 177.354 20.9132 178.263 22.6519C179.194 24.3688 179.66 26.382 179.66 28.6931C179.66 30.4523 179.396 32.0421 178.866 33.4626C178.337 34.8831 177.587 36.1014 176.614 37.119C175.631 38.1433 174.441 38.9456 173.124 39.4724C171.769 40.0242 170.257 40.2987 168.586 40.2987ZM168.586 36.1014C169.833 36.1014 170.891 35.8146 171.759 35.2437C172.648 34.6495 173.324 33.8013 173.79 32.6991C174.277 31.5764 174.519 30.2515 174.519 28.7245C174.519 26.393 174.001 24.5914 172.964 23.3198C171.928 22.0263 170.469 21.3803 168.586 21.3803C167.358 21.3803 166.301 21.6657 165.413 22.238C164.525 22.8117 163.847 23.6476 163.383 24.7512C162.916 25.8521 162.683 27.177 162.683 28.7258C162.683 31.0355 163.203 32.848 164.238 34.1619C165.276 35.4554 166.725 36.1014 168.586 36.1014Z" fill="#12705B"/>
</svg>
